<?xml version="1.0" encoding="utf-8"?>
<!-- Generator: Adobe Illustrator 27.5.0, SVG Export Plug-In . SVG Version: 6.00 Build 0)  -->
<svg version="1.1" xmlns="http://www.w3.org/2000/svg" xmlns:xlink="http://www.w3.org/1999/xlink" x="0px" y="0px"
	 viewBox="0 0 2200 2200" style="enable-background:new 0 0 2200 2200;" xml:space="preserve">
<g id="background">
	<rect style="fill:#FFFFFF;" width="2200" height="2200"/>
</g>
<g id="Objects">
	<g>
		<g>
			<g>
				<path style="fill:#264260;" d="M1319.927,833.325c49.144,0,88.983-39.839,88.983-88.983v-44.491
					c0-49.144-39.839-88.983-88.983-88.983c-49.144,0-88.983,39.839-88.983,88.983v44.491
					C1230.945,793.487,1270.784,833.325,1319.927,833.325z"/>
				<path style="fill:#264260;" d="M1481.802,947.158v177.032c0,11.46-4.652,21.842-12.159,29.349
					c-7.508,7.517-17.89,12.16-29.349,12.16c-12.15,0-23.081-5.219-30.673-13.54v215.052c0,11.356-4.217,21.728-11.176,29.623
					c-25.615,3.858-51.834,5.862-78.517,5.862s-52.902-2.005-78.517-5.862c-6.959-7.895-11.176-18.268-11.176-29.623v-215.052
					c-3.801,4.16-8.425,7.545-13.625,9.89c-5.2,2.345-10.978,3.65-17.048,3.65c-22.92,0-41.509-18.58-41.509-41.509V947.158
					c0-22.929,9.295-43.674,24.319-58.699c15.015-15.025,35.779-24.319,58.698-24.319h157.715
					C1444.634,864.141,1481.802,901.309,1481.802,947.158z"/>
			</g>
			<path style="fill:#264260;" d="M1055.756,760.252c49.144,0,88.983-39.839,88.983-88.983v-44.491
				c0-49.144-39.839-88.983-88.983-88.983c-49.144,0-88.982,39.839-88.982,88.983v44.491
				C966.774,720.413,1006.613,760.252,1055.756,760.252z"/>
			<path style="fill:#264260;" d="M1136.296,947.158v177.032c0,11.989,3.347,23.203,9.153,32.753v137.197
				c0,12.386-5.021,23.591-13.133,31.713c-8.113,8.113-19.327,13.133-31.713,13.133h-30.928
				c-37.575-20.527-72.352-45.537-103.611-74.328v-185.57c-3.801,4.16-8.425,7.545-13.625,9.89c-5.2,2.345-10.968,3.65-17.048,3.65
				c-22.929,0-41.509-18.58-41.509-41.509V874.088c0-22.92,9.295-43.674,24.319-58.708c15.025-15.024,35.779-24.31,58.699-24.31
				h157.715c36.082,0,66.783,23.014,78.233,55.172C1168.737,858.6,1136.296,899.163,1136.296,947.158z"/>
			<path style="fill:#264260;" d="M1584.098,760.252c-49.144,0-88.982-39.839-88.982-88.983v-44.491
				c0-49.144,39.839-88.983,88.982-88.983s88.983,39.839,88.983,88.983v44.491C1673.081,720.413,1633.242,760.252,1584.098,760.252z
				"/>
			<path style="fill:#264260;" d="M1745.975,874.088v177.032c0,22.929-18.58,41.509-41.509,41.509c-6.08,0-11.848-1.305-17.048-3.65
				s-9.824-5.73-13.625-9.89v185.57c-31.259,28.792-66.036,53.801-103.611,74.328h-30.928c-12.386,0-23.6-5.021-31.713-13.133
				c-8.113-8.122-13.133-19.327-13.133-31.713v-137.197c5.806-9.55,9.153-20.764,9.153-32.753V947.158
				c0-47.995-32.441-88.559-76.55-100.917c11.45-32.158,42.152-55.172,78.233-55.172h157.715c22.92,0,43.674,9.285,58.699,24.31
				C1736.68,830.413,1745.975,851.168,1745.975,874.088z"/>
		</g>
		<path style="fill:#264260;" d="M1911.707,1120.336c31.027-76.511,46.759-157.348,46.759-240.263
			c0-82.916-15.732-163.752-46.759-240.264c-32.13-79.233-79.323-150.309-140.265-211.251
			c-60.943-60.942-132.018-108.135-211.251-140.265c-76.512-31.027-157.348-46.759-240.264-46.759
			c-82.915,0-163.752,15.732-240.263,46.759c-79.234,32.131-150.309,79.322-211.252,140.265S760.278,560.576,728.148,639.809
			c-31.028,76.511-46.759,157.348-46.76,240.264c0.001,82.915,15.732,163.752,46.76,240.263
			c20.945,51.65,48.295,99.83,81.677,143.999l-64.649,64.649l125.84,125.84l64.649-64.649c44.17,33.382,92.35,60.732,143.999,81.677
			c76.511,31.027,157.348,46.759,240.263,46.76c82.915-0.001,163.752-15.732,240.264-46.76
			c79.233-32.13,150.309-79.322,211.252-140.265C1832.385,1270.645,1879.576,1199.57,1911.707,1120.336z M1531.765,1401.755
			c-67.44,27.348-138.713,41.214-211.838,41.214c-73.125,0.001-144.398-13.866-211.838-41.214
			c-69.801-28.306-132.445-69.909-186.19-123.654c-53.745-53.745-95.349-116.389-123.654-186.19
			c-27.348-67.44-41.214-138.713-41.214-211.838c-0.001-73.125,13.866-144.398,41.214-211.838
			c28.305-69.801,69.909-132.445,123.654-186.19c53.745-53.745,116.389-95.349,186.19-123.654
			c67.44-27.348,138.712-41.214,211.838-41.214c73.125,0,144.398,13.866,211.837,41.214
			c69.801,28.305,132.445,69.909,186.19,123.654c53.745,53.745,95.349,116.389,123.654,186.19
			c27.348,67.439,41.215,138.712,41.214,211.837c0,73.126-13.866,144.399-41.214,211.838
			c-28.305,69.801-69.909,132.445-123.654,186.19C1664.21,1331.846,1601.566,1373.449,1531.765,1401.755z"/>
		<path style="fill:#264260;" d="M278.378,1921.622L278.378,1921.622c-49.126-49.126-49.126-128.775,0-177.901l392.78-392.78
			l177.901,177.901l-392.78,392.78C407.153,1970.748,327.504,1970.748,278.378,1921.622z"/>
	</g>
</g>
</svg>
